<svg xmlns="http://www.w3.org/2000/svg" xmlns:xlink="http://www.w3.org/1999/xlink" version="1.1" width="1000" height="1000" viewBox="0 0 1000 1000" xml:space="preserve">
<g transform="matrix(1.5309 0 0 1.5309 500 500)" id="654160">
<g style="" vector-effect="non-scaling-stroke">
		<g transform="matrix(1.3333 0 0 1.3333 0.5442 -0.0046)" id="Layer_x0020_3">
<path style="stroke: rgb(0,0,0); stroke-width: 37.3953; stroke-dasharray: none; stroke-linecap: butt; stroke-dashoffset: 0; stroke-linejoin: miter; stroke-miterlimit: 4; is-custom-font: none; font-file-url: none; fill: rgb(0,0,0); fill-rule: nonzero; opacity: 1;" transform=" translate(-216.4491, -222.6936)" d="M 323.205 324.227 c 2.833 -23.601 1.984 -27.062 19.563 -23.239 l 4.463 0.392 c 13.517 0.615 31.199 -2.174 41.587 -7 c 22.362 -10.376 35.622 -27.7 13.572 -23.148 c -50.297 10.376 -53.755 -6.655 -53.755 -6.655 c 53.111 -78.803 75.313 -178.836 56.149 -203.322 C 352.514 -5.534 262.036 26.049 260.522 26.869 l -0.482 0.089 c -9.938 -2.062 -21.06 -3.294 -33.554 -3.496 c -22.761 -0.374 -40.032 5.967 -53.133 15.904 c 0 0 -161.408 -66.498 -153.899 83.628 c 1.597 31.936 45.777 241.655 98.47 178.31 c 19.259 -23.163 37.871 -42.748 37.871 -42.748 c 9.242 6.14 20.307 9.272 31.912 8.147 l 0.897 -0.765 c -0.281 2.876 -0.157 5.689 0.359 9.019 c -13.572 15.167 -9.584 17.83 -36.723 23.416 c -27.457 5.659 -11.326 15.734 -0.797 18.367 c 12.768 3.193 42.305 7.716 62.268 -20.224 l -0.795 3.188 c 5.325 4.26 4.965 30.619 5.72 49.452 c 0.756 18.834 2.017 36.409 5.856 46.771 c 3.839 10.36 8.369 37.05 44.036 29.406 c 29.809 -6.388 52.6 -15.582 54.677 -101.107" stroke-linecap="round"/>
</g>
		<g transform="matrix(1.3333 0 0 1.3333 0.5411 0.0229)" id="Layer_x0020_3">
<path style="stroke: none; stroke-width: 12.4651; stroke-dasharray: none; stroke-linecap: round; stroke-dashoffset: 0; stroke-linejoin: round; stroke-miterlimit: 4; is-custom-font: none; font-file-url: none; fill: rgb(51,103,145); fill-rule: nonzero; opacity: 1;" transform=" translate(-216.4464, -222.714)" d="M 402.395 271.23 c -50.302 10.376 -53.76 -6.655 -53.76 -6.655 c 53.111 -78.808 75.313 -178.843 56.153 -203.326 c -52.27 -66.785 -142.752 -35.2 -144.262 -34.38 l -0.486 0.087 c -9.938 -2.063 -21.06 -3.292 -33.56 -3.496 c -22.761 -0.373 -40.026 5.967 -53.127 15.902 c 0 0 -161.411 -66.495 -153.904 83.63 c 1.597 31.938 45.776 241.657 98.471 178.312 c 19.26 -23.163 37.869 -42.748 37.869 -42.748 c 9.243 6.14 20.308 9.272 31.908 8.147 l 0.901 -0.765 c -0.28 2.876 -0.152 5.689 0.361 9.019 c -13.575 15.167 -9.586 17.83 -36.723 23.416 c -27.459 5.659 -11.328 15.734 -0.796 18.367 c 12.768 3.193 42.307 7.716 62.266 -20.224 l -0.796 3.188 c 5.319 4.26 9.054 27.711 8.428 48.969 c -0.626 21.259 -1.044 35.854 3.147 47.254 c 4.191 11.4 8.368 37.05 44.042 29.406 c 29.809 -6.388 45.256 -22.942 47.405 -50.555 c 1.525 -19.631 4.976 -16.729 5.194 -34.28 l 2.768 -8.309 c 3.192 -26.611 0.507 -35.196 18.872 -31.203 l 4.463 0.392 c 13.517 0.615 31.208 -2.174 41.591 -7 c 22.358 -10.376 35.618 -27.7 13.573 -23.148 z" stroke-linecap="round"/>
</g>
		<g transform="matrix(1.3333 0 0 1.3333 74.4342 179.0767)" id="Layer_x0020_3">
<path style="stroke: rgb(255,255,255); stroke-width: 12.4651; stroke-dasharray: none; stroke-linecap: round; stroke-dashoffset: 0; stroke-linejoin: round; stroke-miterlimit: 4; is-custom-font: none; font-file-url: none; fill: none; fill-rule: nonzero; opacity: 1;" transform=" translate(-271.8628, -357.0009)" d="M 215.866 286.484 c -1.385 49.516 0.348 99.377 5.193 111.495 c 4.848 12.118 15.223 35.688 50.9 28.045 c 29.806 -6.39 40.651 -18.756 45.357 -46.051 c 3.466 -20.082 10.148 -75.854 11.005 -87.281" stroke-linecap="round"/>
</g>
		<g transform="matrix(1.3333 0 0 1.3333 -160.0888 -72.7049)" id="Layer_x0020_3">
<path style="stroke: rgb(255,255,255); stroke-width: 12.4651; stroke-dasharray: none; stroke-linecap: round; stroke-dashoffset: 0; stroke-linejoin: round; stroke-miterlimit: 4; is-custom-font: none; font-file-url: none; fill: none; fill-rule: nonzero; opacity: 1;" transform=" translate(-95.971, -168.1666)" d="M 173.104 38.256 c 0 0 -161.521 -66.016 -154.012 84.109 c 1.597 31.938 45.779 241.664 98.473 178.316 c 19.256 -23.166 36.671 -41.335 36.671 -41.335" stroke-linecap="round"/>
</g>
		<g transform="matrix(1.3333 0 0 1.3333 159.5112 -108.9068)" id="Layer_x0020_3">
<path style="stroke: rgb(255,255,255); stroke-width: 12.4651; stroke-dasharray: none; stroke-linecap: round; stroke-dashoffset: 0; stroke-linejoin: round; stroke-miterlimit: 4; is-custom-font: none; font-file-url: none; fill: none; fill-rule: nonzero; opacity: 1;" transform=" translate(-335.6709, -141.0147)" d="M 260.349 26.207 c -5.591 1.753 89.848 -34.889 144.087 34.417 c 19.159 24.484 -3.043 124.519 -56.153 203.329" stroke-linecap="round"/>
</g>
		<g transform="matrix(1.3333 0 0 1.3333 75.4591 -81.1574)" id="Layer_x0020_3">
<path style="stroke: rgb(255,255,255); stroke-width: 12.4651; stroke-dasharray: none; stroke-linecap: round; stroke-dashoffset: 0; stroke-linejoin: bevel; stroke-miterlimit: 4; is-custom-font: none; font-file-url: none; fill: none; fill-rule: nonzero; opacity: 1;" transform=" translate(-272.6335, -161.8271)" d="M 348.282 263.953 c 0 0 3.461 17.036 53.764 6.653 c 22.04 -4.552 8.776 12.774 -13.577 23.155 c -18.345 8.514 -59.474 10.696 -60.146 -1.069 c -1.729 -30.355 21.647 -21.133 19.96 -28.739 c -1.525 -6.85 -11.979 -13.573 -18.894 -30.338 c -6.037 -14.633 -82.796 -126.849 21.287 -110.183 c 3.813 -0.789 -27.146 -99.002 -124.553 -100.599 c -97.385 -1.597 -94.19 119.762 -94.19 119.762" stroke-linecap="round"/>
</g>
		<g transform="matrix(1.3333 0 0 1.3333 -53.045 94.5924)" id="Layer_x0020_3">
<path style="stroke: rgb(255,255,255); stroke-width: 12.4651; stroke-dasharray: none; stroke-linecap: round; stroke-dashoffset: 0; stroke-linejoin: round; stroke-miterlimit: 4; is-custom-font: none; font-file-url: none; fill: none; fill-rule: nonzero; opacity: 1;" transform=" translate(-176.2529, -293.6366)" d="M 188.604 274.334 c -13.577 15.166 -9.584 17.829 -36.723 23.417 c -27.459 5.66 -11.326 15.733 -0.797 18.365 c 12.768 3.195 42.307 7.718 62.266 -20.229 c 6.078 -8.509 -0.036 -22.086 -8.385 -25.547 c -4.034 -1.671 -9.428 -3.765 -16.361 3.994 z" stroke-linecap="round"/>
</g>
		<g transform="matrix(1.3333 0 0 1.3333 -61.0931 -31.6421)" id="Layer_x0020_3">
<path style="stroke: rgb(255,255,255); stroke-width: 12.4651; stroke-dasharray: none; stroke-linecap: round; stroke-dashoffset: 0; stroke-linejoin: round; stroke-miterlimit: 4; is-custom-font: none; font-file-url: none; fill: none; fill-rule: nonzero; opacity: 1;" transform=" translate(-170.2168, -198.962)" d="M 187.715 274.069 c -1.368 -8.917 2.93 -19.528 7.536 -31.942 c 6.922 -18.626 22.893 -37.255 10.117 -96.339 c -9.523 -44.029 -73.396 -9.163 -73.436 -3.193 c -0.039 5.968 2.889 30.26 -1.067 58.548 c -5.162 36.913 23.488 68.132 56.479 64.938" stroke-linecap="round"/>
</g>
		<g transform="matrix(1.3333 0 0 1.3333 -45.376 -104.1939)" id="Layer_x0020_3">
<path style="stroke: rgb(255,255,255); stroke-width: 4.155; stroke-dasharray: none; stroke-linecap: butt; stroke-dashoffset: 0; stroke-linejoin: miter; stroke-miterlimit: 4; is-custom-font: none; font-file-url: none; fill: rgb(255,255,255); fill-rule: nonzero; opacity: 1;" transform=" translate(-182.0038, -144.5463)" d="M 172.517 141.7 c -0.288 2.039 3.733 7.48 8.976 8.207 c 5.234 0.73 9.714 -3.522 9.998 -5.559 c 0.284 -2.039 -3.732 -4.285 -8.977 -5.015 c -5.237 -0.731 -9.719 0.333 -9.996 2.367 z" stroke-linecap="round"/>
</g>
		<g transform="matrix(1.3333 0 0 1.3333 141.8868 -109.7363)" id="Layer_x0020_3">
<path style="stroke: rgb(255,255,255); stroke-width: 2.0775; stroke-dasharray: none; stroke-linecap: butt; stroke-dashoffset: 0; stroke-linejoin: miter; stroke-miterlimit: 4; is-custom-font: none; font-file-url: none; fill: rgb(255,255,255); fill-rule: nonzero; opacity: 1;" transform=" translate(-322.4508, -140.3895)" d="M 331.941 137.543 c 0.284 2.039 -3.732 7.48 -8.976 8.207 c -5.238 0.73 -9.718 -3.522 -10.005 -5.559 c -0.277 -2.039 3.74 -4.285 8.979 -5.015 c 5.239 -0.73 9.718 0.333 10.002 2.368 z" stroke-linecap="round"/>
</g>
		<g transform="matrix(1.3333 0 0 1.3333 172.1436 -48.7823)" id="Layer_x0020_3">
<path style="stroke: rgb(255,255,255); stroke-width: 12.4651; stroke-dasharray: none; stroke-linecap: round; stroke-dashoffset: 0; stroke-linejoin: round; stroke-miterlimit: 4; is-custom-font: none; font-file-url: none; fill: none; fill-rule: nonzero; opacity: 1;" transform=" translate(-345.1434, -186.1065)" d="M 350.676 123.432 c 0.863 15.994 -3.445 26.888 -3.988 43.914 c -0.804 24.748 11.799 53.074 -7.191 81.435" stroke-linecap="round"/>
</g>
		<g transform="matrix(1.3333 0 0 1.3333 -288.0473 -216.6127)" id="Layer_x0020_3">
<path style="stroke: rgb(255,255,255); stroke-width: 3; stroke-dasharray: none; stroke-linecap: round; stroke-dashoffset: 0; stroke-linejoin: round; stroke-miterlimit: 4; is-custom-font: none; font-file-url: none; fill: none; fill-rule: nonzero; opacity: 1;" transform=" translate(0, -60.232)" d="M 0 60.232" stroke-linecap="round"/>
</g>
</g>
</g>
<g transform="matrix(0 7.2885 8.4777 0 241.7362 851.6715)" id="915218">
<g style="" vector-effect="non-scaling-stroke">
		<g transform="matrix(1 0 0 1 0.0047 -3.4967)" id="Layer_1">
<path style="stroke: rgb(0,0,0); stroke-width: 1; stroke-dasharray: none; stroke-linecap: butt; stroke-dashoffset: 0; stroke-linejoin: miter; stroke-miterlimit: 4; is-custom-font: none; font-file-url: none; fill: rgb(51,103,145); fill-rule: nonzero; opacity: 1;" transform=" translate(-16.0048, -12.5033)" d="M 9.59 16.59 a 2 2 0 0 0 0 2.83 l 5 5 a 2 2 0 0 0 2.83 0 l 5 -5 a 2 2 0 0 0 -2.83 -2.83 L 19 17.2 L 18 19 V 2 a 2 2 0 0 0 -4 0 V 19 l -1 -1.79 l -0.63 -0.63 a 2 2 0 0 0 -2.83 0 Z" stroke-linecap="round"/>
</g>
		<g transform="matrix(1 0 0 1 -0.0001 5.0004)" id="Layer_1">
<path style="stroke: rgb(0,0,0); stroke-width: 1; stroke-dasharray: none; stroke-linecap: butt; stroke-dashoffset: 0; stroke-linejoin: miter; stroke-miterlimit: 4; is-custom-font: none; font-file-url: none; fill: rgb(51,103,145); fill-rule: nonzero; opacity: 1;" transform=" translate(-16, -21.0004)" d="M 31 14.88 c -0.19 -3 -1.93 -4.74 -5 -4.87 H 22 a 2 2 0 0 0 -2 2 h 0 v 0.09 a 2 2 0 0 0 1.67 2 a 4 4 0 0 1 2.61 1.66 a 4.11 4.11 0 0 1 -0.57 5.22 l -4.89 4.89 a 4 4 0 0 1 -5.66 0 L 8.4 21.05 A 4.36 4.36 0 0 1 7.1 17.26 a 3.88 3.88 0 0 1 3.18 -3.18 a 2 2 0 0 0 1.68 -2 V 12 a 2 2 0 0 0 -2 -2 H 6 c -3 0 -4.87 1.88 -5 5 V 27.08 A 4.78 4.78 0 0 0 5.87 32 H 26.13 A 4.86 4.86 0 0 0 31 27 V 15 S 31 14.92 31 14.88 Z" stroke-linecap="round"/>
</g>
</g>
</g>
</svg>